<?xml version="1.0" encoding="utf-8"?>
<!-- Generator: Adobe Illustrator 21.0.2, SVG Export Plug-In . SVG Version: 6.00 Build 0)  -->
<svg version="1.1" id="Layer_1" xmlns="http://www.w3.org/2000/svg" xmlns:xlink="http://www.w3.org/1999/xlink" x="0px" y="0px"
	 viewBox="0 0 157.2 128.7" style="enable-background:new 0 0 157.2 128.7;" xml:space="preserve">
<style type="text/css">
	.st0{fill:#313131;}
	.st1{fill:#FFFFFF;}
	.st2{fill:#3B97D3;}
	.st3{fill:#F05436;}
	.st4{fill:#030303;}
	.st5{fill:#3B97D3;stroke:#3B97D3;stroke-miterlimit:10;}
	.st6{fill:#E2E2E2;}
	.st7{fill:#363636;}
	.st8{fill:#5D5D5D;}
	.st9{fill:none;stroke:#000000;stroke-miterlimit:10;}
	.st10{fill:#303036;}
	.st11{fill:#B5B5B6;}
	.st12{fill:#52515B;}
</style>
<g>
	<path class="st6" d="M133.8,18.2l23.4,3.6c-5.9-12.1-15.6-20.4-32.6-21.4c-13.7-0.1-23.8,6.5-31.4,18.1l-21.4-3.9v43.8l21.4-3.9
		c5.9,10.3,16,16.7,31.3,18.5C140,72,150,63.4,157.2,51l-23.5,3.4l-11.2-17.8L133.8,18.2z"/>
	<path class="st2" d="M69.2,62L86,111.2c1.7,8.3-5.1,16.4-12,17.5H12.2c-8.7-2.2-13.3-7.5-12-17.5l17-49.2
		C34.5,61.1,51.8,63,69.2,62z"/>
	<circle class="st12" cx="43.1" cy="36.7" r="36.7"/>
	<circle class="st2" cx="43.1" cy="36.7" r="22.1"/>
</g>
</svg>
